<svg xmlns="http://www.w3.org/2000/svg" viewBox="0 0 960 380" width="960" height="380">
  <defs>
    <!-- Subtle grid pattern -->
    <pattern id="grid-dark" width="24" height="24" patternUnits="userSpaceOnUse">
      <path d="M 24 0 L 0 0 0 24" fill="none" stroke="#334155" stroke-width="0.5" opacity="0.4"/>
    </pattern>

    <!-- Gradient for the main terminal window -->
    <linearGradient id="terminal-bg-dark" x1="0" y1="0" x2="0" y2="1">
      <stop offset="0%" stop-color="#1E293B"/>
      <stop offset="100%" stop-color="#0F172A"/>
    </linearGradient>

    <!-- Gradient for the terminal title bar -->
    <linearGradient id="titlebar-dark" x1="0" y1="0" x2="1" y2="0">
      <stop offset="0%" stop-color="#1E293B"/>
      <stop offset="100%" stop-color="#334155"/>
    </linearGradient>

    <!-- Glow for accent elements -->
    <filter id="glow-dark" x="-30%" y="-30%" width="160%" height="160%">
      <feGaussianBlur stdDeviation="4" result="blur"/>
      <feMerge>
        <feMergeNode in="blur"/>
        <feMergeNode in="SourceGraphic"/>
      </feMerge>
    </filter>

    <!-- Soft shadow for cards -->
    <filter id="shadow-dark" x="-5%" y="-5%" width="110%" height="115%">
      <feDropShadow dx="0" dy="2" stdDeviation="8" flood-color="#000000" flood-opacity="0.3"/>
    </filter>

    <!-- Larger soft shadow -->
    <filter id="shadow-lg-dark" x="-5%" y="-5%" width="110%" height="118%">
      <feDropShadow dx="0" dy="4" stdDeviation="14" flood-color="#000000" flood-opacity="0.4"/>
    </filter>

    <!-- Dot pattern for background texture -->
    <pattern id="dots-dark" width="16" height="16" patternUnits="userSpaceOnUse">
      <circle cx="1" cy="1" r="0.6" fill="#64748B" opacity="0.15"/>
    </pattern>

    <!-- Connection line gradient -->
    <linearGradient id="conn-grad-dark" x1="0" y1="0" x2="1" y2="0">
      <stop offset="0%" stop-color="#475569" stop-opacity="0"/>
      <stop offset="50%" stop-color="#94A3B8" stop-opacity="0.4"/>
      <stop offset="100%" stop-color="#475569" stop-opacity="0"/>
    </linearGradient>

    <!-- Node pulse gradient -->
    <radialGradient id="node-glow-dark" cx="50%" cy="50%" r="50%">
      <stop offset="0%" stop-color="#94A3B8" stop-opacity="0.12"/>
      <stop offset="100%" stop-color="#94A3B8" stop-opacity="0"/>
    </radialGradient>

    <!-- Ambient glow -->
    <radialGradient id="ambient-glow" cx="50%" cy="50%" r="50%">
      <stop offset="0%" stop-color="#334155" stop-opacity="0.3"/>
      <stop offset="100%" stop-color="#0F172A" stop-opacity="0"/>
    </radialGradient>

    <!-- Terminal inner glow -->
    <linearGradient id="terminal-inner-glow" x1="0" y1="0" x2="0" y2="1">
      <stop offset="0%" stop-color="#334155" stop-opacity="0.2"/>
      <stop offset="100%" stop-color="#0F172A" stop-opacity="0"/>
    </linearGradient>
  </defs>

  <!-- Background -->
  <rect width="960" height="380" fill="#0F172A"/>

  <!-- Ambient center glow -->
  <ellipse cx="480" cy="190" rx="400" ry="200" fill="url(#ambient-glow)"/>

  <!-- Dot pattern overlay -->
  <rect width="960" height="380" fill="url(#dots-dark)"/>

  <!-- Subtle grid in center area -->
  <rect x="80" y="40" width="800" height="300" fill="url(#grid-dark)" opacity="0.4" rx="4"/>

  <!-- === LEFT SECTION: Abstract terminal window === -->
  <g transform="translate(100, 60)" filter="url(#shadow-lg-dark)">
    <!-- Terminal window body -->
    <rect width="320" height="220" rx="8" ry="8" fill="#1E293B" stroke="#334155" stroke-width="1"/>

    <!-- Title bar -->
    <rect width="320" height="32" rx="8" ry="8" fill="url(#titlebar-dark)"/>
    <rect y="24" width="320" height="8" fill="url(#titlebar-dark)"/>
    <line x1="0" y1="32" x2="320" y2="32" stroke="#334155" stroke-width="0.5"/>

    <!-- Window controls -->
    <circle cx="16" cy="16" r="5" fill="#EF4444" opacity="0.5"/>
    <circle cx="34" cy="16" r="5" fill="#EAB308" opacity="0.5"/>
    <circle cx="52" cy="16" r="5" fill="#22C55E" opacity="0.5"/>

    <!-- Terminal content: code lines -->
    <g transform="translate(16, 46)" font-family="'SF Mono', 'Fira Code', 'Cascadia Code', monospace" font-size="11">
      <!-- Prompt line 1 -->
      <text fill="#94A3B8" opacity="0.6">
        <tspan>$</tspan>
      </text>
      <rect x="14" y="-8" width="80" height="12" rx="2" fill="#94A3B8" opacity="0.15"/>

      <!-- Prompt line 2 -->
      <text y="20" fill="#94A3B8" opacity="0.6">
        <tspan>$</tspan>
      </text>
      <rect x="14" y="12" width="140" height="12" rx="2" fill="#94A3B8" opacity="0.1"/>

      <!-- Output block -->
      <rect x="4" y="36" width="200" height="12" rx="2" fill="#64748B" opacity="0.12"/>
      <rect x="4" y="52" width="160" height="12" rx="2" fill="#64748B" opacity="0.09"/>
      <rect x="4" y="68" width="180" height="12" rx="2" fill="#64748B" opacity="0.12"/>

      <!-- Prompt line 3 with cursor -->
      <text y="100" fill="#94A3B8" opacity="0.6">
        <tspan>$</tspan>
      </text>
      <rect x="14" y="92" width="110" height="12" rx="2" fill="#94A3B8" opacity="0.15"/>

      <!-- Blinking cursor -->
      <rect x="130" y="91" width="2" height="14" fill="#94A3B8" opacity="0.7">
        <animate attributeName="opacity" values="0.7;0.15;0.7" dur="1.5s" repeatCount="indefinite"/>
      </rect>

      <!-- Status line -->
      <rect x="0" y="124" width="288" height="1" fill="#334155"/>
      <rect x="4" y="132" width="60" height="10" rx="2" fill="#22C55E" opacity="0.2"/>
      <rect x="70" y="132" width="40" height="10" rx="2" fill="#64748B" opacity="0.12"/>
      <rect x="116" y="132" width="50" height="10" rx="2" fill="#64748B" opacity="0.12"/>
    </g>
  </g>

  <!-- === CENTER SECTION: Agent workflow / connection nodes === -->
  <g transform="translate(460, 100)">
    <!-- Connection lines between nodes -->
    <line x1="0" y1="90" x2="60" y2="40" stroke="#64748B" stroke-width="1.5" stroke-dasharray="4 3" opacity="0.3"/>
    <line x1="0" y1="90" x2="60" y2="140" stroke="#64748B" stroke-width="1.5" stroke-dasharray="4 3" opacity="0.3"/>
    <line x1="60" y1="40" x2="140" y2="90" stroke="#64748B" stroke-width="1.5" stroke-dasharray="4 3" opacity="0.3"/>
    <line x1="60" y1="140" x2="140" y2="90" stroke="#64748B" stroke-width="1.5" stroke-dasharray="4 3" opacity="0.3"/>

    <!-- Animated data flow dots on connections -->
    <circle r="2.5" fill="#94A3B8" opacity="0.6" filter="url(#glow-dark)">
      <animateMotion dur="3s" repeatCount="indefinite" path="M0,90 L60,40"/>
    </circle>
    <circle r="2.5" fill="#94A3B8" opacity="0.6" filter="url(#glow-dark)">
      <animateMotion dur="3.5s" repeatCount="indefinite" path="M60,40 L140,90"/>
    </circle>
    <circle r="2.5" fill="#94A3B8" opacity="0.6" filter="url(#glow-dark)">
      <animateMotion dur="4s" repeatCount="indefinite" path="M60,140 L140,90"/>
    </circle>

    <!-- Input node (left) -->
    <circle cx="0" cy="90" r="20" fill="url(#node-glow-dark)"/>
    <circle cx="0" cy="90" r="8" fill="#1E293B" stroke="#94A3B8" stroke-width="1.5" filter="url(#shadow-dark)"/>
    <rect x="-4" y="86" width="8" height="8" rx="1.5" fill="#94A3B8" opacity="0.5"/>

    <!-- Top processing node -->
    <circle cx="60" cy="40" r="24" fill="url(#node-glow-dark)"/>
    <circle cx="60" cy="40" r="10" fill="#1E293B" stroke="#CBD5E1" stroke-width="1.5" filter="url(#shadow-dark)"/>
    <!-- Gear icon abstraction -->
    <circle cx="60" cy="40" r="4" fill="none" stroke="#CBD5E1" stroke-width="1.2"/>
    <line x1="60" y1="33" x2="60" y2="35" stroke="#CBD5E1" stroke-width="1.2"/>
    <line x1="60" y1="45" x2="60" y2="47" stroke="#CBD5E1" stroke-width="1.2"/>
    <line x1="53" y1="40" x2="55" y2="40" stroke="#CBD5E1" stroke-width="1.2"/>
    <line x1="65" y1="40" x2="67" y2="40" stroke="#CBD5E1" stroke-width="1.2"/>

    <!-- Bottom processing node -->
    <circle cx="60" cy="140" r="24" fill="url(#node-glow-dark)"/>
    <circle cx="60" cy="140" r="10" fill="#1E293B" stroke="#CBD5E1" stroke-width="1.5" filter="url(#shadow-dark)"/>
    <!-- Bolt/lightning abstraction -->
    <path d="M58,134 L62,139 L59,139 L62,146" fill="none" stroke="#CBD5E1" stroke-width="1.3" stroke-linecap="round" stroke-linejoin="round"/>

    <!-- Output/result node (right) -->
    <circle cx="140" cy="90" r="28" fill="url(#node-glow-dark)"/>
    <circle cx="140" cy="90" r="12" fill="#1E293B" stroke="#94A3B8" stroke-width="1.5" filter="url(#shadow-dark)"/>
    <!-- Checkmark -->
    <path d="M134,90 L138,94 L146,86" fill="none" stroke="#94A3B8" stroke-width="1.8" stroke-linecap="round" stroke-linejoin="round"/>
  </g>

  <!-- === RIGHT SECTION: Abstract config/doc card stack === -->
  <g transform="translate(660, 70)" filter="url(#shadow-lg-dark)">
    <!-- Background card (offset) -->
    <rect x="12" y="8" width="200" height="240" rx="8" fill="#0F172A" stroke="#334155" stroke-width="1"/>

    <!-- Foreground card -->
    <rect width="200" height="240" rx="8" fill="#1E293B" stroke="#334155" stroke-width="1"/>

    <!-- Card header area -->
    <rect x="16" y="16" width="168" height="6" rx="3" fill="#94A3B8" opacity="0.2"/>
    <rect x="16" y="28" width="120" height="4" rx="2" fill="#64748B" opacity="0.15"/>

    <!-- Divider -->
    <line x1="16" y1="42" x2="184" y2="42" stroke="#334155" stroke-width="1"/>

    <!-- Config-like key-value rows -->
    <g transform="translate(16, 52)">
      <!-- Row 1 -->
      <rect width="40" height="10" rx="2" fill="#94A3B8" opacity="0.15"/>
      <rect x="50" y="0" width="80" height="10" rx="2" fill="#64748B" opacity="0.1"/>

      <!-- Row 2 -->
      <rect y="18" width="55" height="10" rx="2" fill="#94A3B8" opacity="0.15"/>
      <rect x="65" y="18" width="60" height="10" rx="2" fill="#64748B" opacity="0.1"/>

      <!-- Row 3 -->
      <rect y="36" width="35" height="10" rx="2" fill="#94A3B8" opacity="0.15"/>
      <rect x="45" y="36" width="100" height="10" rx="2" fill="#64748B" opacity="0.1"/>

      <!-- Row 4 -->
      <rect y="54" width="50" height="10" rx="2" fill="#94A3B8" opacity="0.15"/>
      <rect x="60" y="54" width="70" height="10" rx="2" fill="#64748B" opacity="0.1"/>

      <!-- Nested block indicator -->
      <rect x="8" y="72" width="30" height="10" rx="2" fill="#94A3B8" opacity="0.1"/>
      <rect x="46" y="72" width="90" height="10" rx="2" fill="#64748B" opacity="0.08"/>

      <rect x="8" y="90" width="45" height="10" rx="2" fill="#94A3B8" opacity="0.1"/>
      <rect x="60" y="90" width="55" height="10" rx="2" fill="#64748B" opacity="0.08"/>
    </g>

    <!-- Bottom accent bar -->
    <rect x="16" y="214" width="168" height="4" rx="2" fill="#64748B" opacity="0.1"/>
    <rect x="16" y="214" width="60" height="4" rx="2" fill="#94A3B8" opacity="0.2"/>
  </g>

  <!-- === DECORATIVE ELEMENTS === -->

  <!-- Floating geometric shapes -->
  <rect x="72" y="310" width="16" height="16" rx="3" fill="none" stroke="#475569" stroke-width="1" opacity="0.25" transform="rotate(15, 80, 318)"/>
  <circle cx="450" cy="48" r="6" fill="none" stroke="#475569" stroke-width="1" opacity="0.25"/>
  <rect x="890" y="330" width="12" height="12" rx="2" fill="#475569" opacity="0.1" transform="rotate(30, 896, 336)"/>
  <circle cx="880" cy="60" r="4" fill="#94A3B8" opacity="0.08"/>

  <!-- Subtle corner accents -->
  <path d="M20,20 L20,40 M20,20 L40,20" fill="none" stroke="#334155" stroke-width="1" opacity="0.5"/>
  <path d="M940,20 L940,40 M940,20 L920,20" fill="none" stroke="#334155" stroke-width="1" opacity="0.5"/>
  <path d="M20,360 L20,340 M20,360 L40,360" fill="none" stroke="#334155" stroke-width="1" opacity="0.5"/>
  <path d="M940,360 L940,340 M940,360 L920,360" fill="none" stroke="#334155" stroke-width="1" opacity="0.5"/>

  <!-- Horizontal decorative line -->
  <line x1="100" y1="340" x2="860" y2="340" stroke="url(#conn-grad-dark)" stroke-width="1"/>

  <!-- Subtle star-like highlights -->
  <circle cx="200" cy="50" r="1.5" fill="#CBD5E1" opacity="0.15"/>
  <circle cx="750" cy="45" r="1" fill="#CBD5E1" opacity="0.12"/>
  <circle cx="350" cy="355" r="1.5" fill="#CBD5E1" opacity="0.1"/>
  <circle cx="650" cy="350" r="1" fill="#CBD5E1" opacity="0.13"/>
  <circle cx="150" cy="350" r="1" fill="#CBD5E1" opacity="0.08"/>
  <circle cx="830" cy="55" r="1.5" fill="#CBD5E1" opacity="0.1"/>
</svg>